<?xml version="1.0" standalone="no"?>
<!DOCTYPE svg PUBLIC "-//W3C//DTD SVG 20010904//EN"
 "http://www.w3.org/TR/2001/REC-SVG-20010904/DTD/svg10.dtd">
<svg version="1.0" xmlns="http://www.w3.org/2000/svg"
 width="1507.000000pt" height="1039.000000pt" viewBox="0 0 1507.000000 1039.000000"
 preserveAspectRatio="xMidYMid meet">

<g transform="translate(0.000000,1039.000000) scale(0.100000,-0.100000)"
fill="#000000" stroke="none">
<path d="M7085 10054 c-22 -9 -380 -132 -795 -274 -1022 -350 -2375 -813
-3670 -1255 -591 -203 -1085 -375 -1097 -384 -12 -9 -27 -29 -33 -45 -14 -41
-14 -5831 0 -5872 6 -16 22 -37 35 -46 13 -10 237 -94 497 -187 260 -93 718
-258 1018 -366 300 -109 588 -212 640 -230 122 -42 636 -227 1085 -390 329
-119 744 -268 1420 -510 160 -57 440 -158 624 -224 225 -82 347 -121 375 -121
28 0 122 29 276 86 129 47 534 194 900 326 366 132 787 284 935 338 149 54
491 177 760 275 270 97 762 276 1095 397 333 121 702 255 820 297 118 43 351
127 518 187 195 70 315 118 335 135 l32 27 3 2942 2 2942 -20 33 c-14 23 -35
38 -68 50 -26 9 -353 120 -727 247 -374 126 -797 270 -940 318 -143 49 -539
183 -880 298 -535 181 -1281 434 -2677 908 -355 120 -386 126 -463 98z m161
-175 c95 -34 1050 -358 1159 -394 55 -18 294 -99 530 -180 237 -80 729 -248
1095 -372 366 -123 769 -260 895 -303 127 -43 566 -192 978 -331 411 -138 747
-256 747 -260 0 -10 -186 -99 -207 -99 -7 0 -240 78 -516 174 -1046 363 -2004
695 -2612 906 -346 120 -962 333 -1368 474 -405 141 -753 256 -771 256 -35 0
-141 -35 -726 -238 -433 -151 -1996 -693 -3438 -1192 l-1103 -383 -95 43 c-52
24 -91 47 -86 52 9 9 -20 -1 762 266 338 116 741 254 895 307 154 53 489 168
745 255 256 87 782 267 1170 400 388 133 961 330 1274 436 314 107 572 197
575 199 9 10 39 5 97 -16z m-177 -351 c0 -7 3 -1170 6 -2584 6 -2145 5 -2572
-7 -2580 -7 -6 -134 -53 -283 -104 -148 -51 -521 -180 -828 -287 -308 -107
-561 -192 -563 -190 -3 3 -5 723 -4 1601 0 1097 -3 1609 -10 1637 -14 52 -45
79 -89 79 -54 0 -1329 -448 -1364 -480 -16 -14 -32 -42 -37 -65 -6 -24 -10
-695 -9 -1669 0 -1320 -3 -1631 -13 -1637 -7 -5 -71 -28 -143 -53 -187 -63
-1568 -542 -1645 -571 -36 -13 -75 -26 -87 -30 l-23 -6 0 2593 0 2594 523 181
c622 217 1692 588 1972 685 110 37 250 86 310 108 61 22 254 89 430 149 584
200 1750 607 1805 629 35 15 60 14 59 0z m328 -22 c54 -19 274 -96 488 -171
418 -147 629 -220 1325 -460 245 -84 582 -201 750 -260 168 -58 602 -209 965
-335 980 -339 1437 -499 1442 -503 6 -6 3 -5170 -3 -5176 -3 -3 -47 9 -97 26
-167 57 -1044 362 -1512 525 -253 88 -620 215 -815 283 -195 68 -564 196 -820
285 -256 89 -672 234 -925 322 -253 88 -566 196 -695 241 l-235 82 0 818 c0
3301 5 4357 20 4357 8 0 59 -15 112 -34z m-5670 -1641 c31 -14 60 -30 63 -35
3 -5 6 -1207 5 -2672 l0 -2663 -65 -32 c-36 -18 -68 -33 -72 -33 -5 0 -8 1228
-8 2730 0 1760 3 2730 10 2730 5 0 35 -11 67 -25z m10963 -2711 c0 -1498 -3
-2724 -7 -2724 -3 0 -37 14 -75 32 l-69 31 1 2631 c1 1447 4 2647 7 2667 5 32
11 39 67 66 33 17 64 29 69 26 4 -2 7 -1230 7 -2729z m-7482 159 l-3 -1588
-225 -78 c-124 -44 -379 -133 -567 -199 -189 -65 -347 -116 -353 -113 -16 10
-13 3152 3 3162 12 8 171 65 512 184 94 32 271 94 395 138 124 44 228 80 233
80 4 1 6 -713 5 -1586z m2139 -1162 c92 -33 330 -116 528 -185 335 -116 1078
-375 1435 -501 85 -30 317 -110 515 -179 198 -68 484 -168 635 -221 616 -217
1287 -451 1480 -516 198 -67 240 -84 230 -92 -3 -2 -248 -88 -545 -192 -529
-184 -1572 -549 -1770 -619 -55 -19 -383 -134 -730 -255 -622 -217 -1358 -474
-1752 -613 l-203 -71 -187 66 c-104 36 -460 161 -793 277 -333 117 -873 305
-1200 420 -327 114 -1000 350 -1495 523 -1204 421 -1249 437 -1290 448 -19 6
-35 14 -35 18 0 11 -3 10 235 91 110 37 337 116 505 175 168 59 361 126 430
150 69 24 280 98 470 165 190 67 408 144 485 170 77 26 284 98 460 160 176 61
390 136 475 165 85 29 272 94 415 145 143 50 447 157 675 236 228 80 510 178
625 219 116 40 215 74 222 74 6 1 87 -26 180 -58z m-5077 -1911 c190 -67 422
-148 515 -180 259 -89 595 -206 960 -335 182 -64 393 -138 470 -165 77 -26
374 -130 660 -230 286 -100 590 -206 675 -235 85 -30 297 -104 470 -165 290
-103 486 -171 946 -331 95 -32 186 -59 203 -59 39 0 115 25 711 235 652 229
1176 413 1615 565 418 145 799 278 1245 435 168 59 447 156 620 217 453 157
870 304 979 344 52 19 103 34 113 34 25 0 168 -66 168 -77 0 -5 -15 -14 -32
-20 -102 -36 -727 -262 -1213 -438 -308 -112 -828 -300 -1155 -418 -327 -119
-824 -298 -1105 -400 -280 -102 -643 -233 -805 -292 -162 -58 -481 -174 -709
-257 l-415 -151 -45 16 c-25 8 -305 108 -621 222 -641 230 -1942 699 -2410
867 -168 61 -341 123 -385 138 -44 15 -276 98 -515 185 -613 221 -1451 521
-1477 530 -13 3 -23 10 -23 14 0 16 155 80 185 77 17 -2 185 -58 375 -126z"/>
<path d="M8470 7552 c-27 -28 -28 -30 -35 -193 -3 -90 -5 -540 -2 -999 3 -640
7 -841 16 -861 19 -38 51 -54 284 -134 117 -40 453 -157 747 -260 294 -103
605 -211 690 -240 85 -30 254 -88 375 -130 204 -71 223 -76 257 -65 72 21 68
-44 68 1057 0 1151 11 1041 -110 1085 -411 148 -2215 768 -2235 768 -16 0 -38
-11 -55 -28z m358 -248 l42 -16 0 -369 c0 -314 -2 -369 -14 -369 -8 0 -67 18
-130 41 l-116 41 0 367 c0 202 2 370 5 373 5 4 92 -23 213 -68z m459 -160
c120 -42 221 -79 226 -83 4 -4 6 -174 5 -377 l-3 -370 -235 82 -235 82 -3 371
c-2 323 0 371 13 371 8 0 113 -34 232 -76z m718 -249 c154 -53 372 -129 485
-169 l205 -72 3 -377 c1 -207 1 -377 0 -377 -2 0 -226 78 -498 174 l-495 174
-3 376 c-2 299 0 375 10 371 7 -2 139 -47 293 -100z m-1284 -484 c46 -16 99
-35 117 -41 l32 -12 0 -264 0 -264 -120 -60 c-66 -33 -124 -60 -130 -60 -7 0
-10 125 -10 365 0 295 3 365 13 365 7 0 51 -13 98 -29z m570 -199 l224 -79 3
-211 2 -211 -231 79 c-127 44 -235 82 -240 86 -5 3 -9 97 -9 210 0 163 3 204
13 204 8 0 114 -35 238 -78z m937 -328 l472 -168 0 -203 c0 -158 -3 -203 -13
-203 -11 0 -416 138 -832 284 l-150 53 -3 207 -2 208 27 -5 c16 -3 241 -81
501 -173z m-1126 -210 c57 -19 162 -56 233 -80 72 -25 142 -50 158 -56 l27
-10 0 -124 c0 -68 -4 -124 -9 -124 -12 0 -757 256 -795 273 l-29 13 73 35 c40
19 108 51 149 71 42 20 79 37 83 37 4 1 54 -15 110 -35z m720 -250 c57 -20
173 -60 258 -89 216 -74 527 -182 578 -201 l42 -16 0 -124 c0 -84 -4 -124 -11
-124 -10 0 -199 65 -814 279 l-170 59 -3 126 c-2 80 1 126 8 126 5 0 56 -16
112 -36z"/>
<path d="M4330 5012 c-45 -20 -80 -62 -80 -96 0 -8 14 -32 32 -52 30 -33 35
-36 75 -31 62 7 83 29 83 88 0 41 -4 50 -27 67 -35 24 -63 32 -83 24z"/>
</g>
</svg>
